<svg xmlns="http://www.w3.org/2000/svg" width="1200" height="630" viewBox="0 0 1200 630" role="img" aria-labelledby="title desc">
  <title id="title">OpenAI's Agents API Turns the Harness Into a Product</title>
  <desc id="desc">A branded A2Techify social card for an article about the OpenAI Agents API managed harness.</desc>
  <rect width="1200" height="630" fill="#10120f"/>
  <rect x="64" y="64" width="1072" height="502" rx="8" fill="#171a15" stroke="#8cffc1" stroke-opacity=".35" stroke-width="2"/>
  <text x="104" y="145" fill="#8cffc1" font-family="Inter, Arial, sans-serif" font-size="32" font-weight="800">A2Techify Field Notes</text>
  <text x="104" y="245" fill="#f7f8f5" font-family="Inter, Arial, sans-serif" font-size="58" font-weight="900">Agents API</text>
  <text x="104" y="313" fill="#f7f8f5" font-family="Inter, Arial, sans-serif" font-size="58" font-weight="900">Managed Harness</text>
  <text x="104" y="408" fill="#c8cec3" font-family="Inter, Arial, sans-serif" font-size="31">Sessions, sandboxes, tools, and subagents.</text>
  <rect x="756" y="142" width="320" height="336" rx="8" fill="#10120f" stroke="#80e9ff" stroke-width="10"/>
  <circle cx="916" cy="224" r="52" fill="#ffca5f"/>
  <rect x="820" y="326" width="192" height="72" rx="8" fill="#171a15" stroke="#f7f8f5" stroke-opacity=".8" stroke-width="8"/>
  <path d="M916 276v50M820 362h-78M1012 362h78M862 224h-78M970 224h78" stroke="#8cffc1" stroke-width="12" stroke-linecap="round"/>
  <path d="M754 332l-38 30 38 30M1078 332l38 30-38 30M786 196l-38 28 38 28M1046 196l38 28-38 28" fill="none" stroke="#ff7a66" stroke-width="12" stroke-linecap="round" stroke-linejoin="round"/>
  <path d="M844 520h144M916 478v42" stroke="#8cffc1" stroke-width="12" stroke-linecap="round"/>
</svg>
